Coordinates
version=1
nRows=8
nColumns=34
inDegrees=yes

Units are S.I. units (second, meters, Newtons, ...)
If the header above contains a line with 'inDegrees', this indicates whether rotational values are in degrees (yes) or radians (no).

endheader
time	pelvis_tilt	pelvis_list	pelvis_rotation	pelvis_tx	pelvis_ty	pelvis_tz	hip_flexion_r	hip_adduction_r	hip_rotation_r	knee_angle_r	ankle_angle_r	subtalar_angle_r	mtp_angle_r	hip_flexion_l	hip_adduction_l	hip_rotation_l	knee_angle_l	ankle_angle_l	subtalar_angle_l	mtp_angle_l	lumbar_extension	lumbar_bending	lumbar_rotation	arm_flex_r	arm_add_r	arm_rot_r	elbow_flex_r	pro_sup_r	arm_flex_l	arm_add_l	arm_rot_l	elbow_flex_l	pro_sup_l
      9.93333330	      0.06761536	      0.51266097	     -0.91124582	     -0.59461878	      0.77822934	     -0.16339260	     45.01861043	     -7.79567029	     -4.92365747	     80.38600402	     38.85192631	     -1.76131887	      0.00000000	     44.02069987	     -9.28615940	     -7.66286150	     81.29587476	     37.42128989	      1.87752938	      0.00000000	    -55.61477882	      0.60308247	      2.83342405	     18.87991058	     -8.22126130	    -10.44128390	     35.19961444	     98.43716793	     19.40217596	    -11.42023499	      6.15170016	     32.37620512	     97.84680852
      9.95000000	      0.26478973	      0.49372212	     -0.82623269	     -0.59565772	      0.78714287	     -0.16331793	     43.39259106	     -7.48237553	     -5.02185879	     77.83509854	     37.63721786	     -2.35183032	      0.00000000	     42.67159113	     -9.15023735	     -7.94301459	     78.83290139	     35.98191157	      1.46069541	      0.00000000	    -55.24928219	      0.72972165	      2.78417893	     18.62271738	     -8.15913773	    -10.30823289	     35.41678471	     98.64721561	     19.31368853	    -11.40752195	      6.12906251	     32.64163167	     97.96487809
      9.96666670	      0.15624736	      0.56937234	     -0.81442411	     -0.59848977	      0.79321434	     -0.16474471	     42.45721210	     -7.35989492	     -5.01596658	     75.63047629	     36.26288150	     -2.82542608	      0.00000000	     41.71831086	     -8.87531807	     -8.30197813	     76.57464937	     34.72137640	      1.03265948	      0.00000000	    -54.39641242	      0.82763866	      2.66353896	     18.32379103	     -8.16795839	    -10.14664284	     35.68591336	     98.87322177	     19.05903683	    -11.40987671	      6.13716295	     32.78778258	     98.10606862
      9.98333330	     -0.35693642	      0.59881566	     -0.79840522	     -0.59648101	      0.80016002	     -0.16449090	     41.75211787	     -7.21380078	     -5.11031261	     73.12470464	     35.21680939	     -2.65578474	      0.00000000	     41.19817328	     -8.66496627	     -8.59873683	     74.29575786	     33.73753226	      1.10781168	      0.00000000	    -53.01279529	      0.95054618	      2.57461181	     17.77352332	     -8.15634447	    -10.05245783	     35.68366109	     98.98904734	     18.56110188	    -11.38889110	      6.15357416	     32.75499553	     98.18021716
     10.00000000	     -0.74237926	      0.60120738	     -0.70448656	     -0.59213531	      0.80839516	     -0.16511754	     40.68967618	     -7.08279121	     -5.21586367	     70.62980279	     33.80599000	     -3.14203560	      0.00000000	     40.11216624	     -8.35782767	     -8.80856053	     71.78572391	     32.68520200	      0.85769108	      0.00000000	    -51.38966800	      1.13904459	      2.44030645	     17.07303856	     -8.13041458	     -9.79645787	     35.47107833	     99.22124812	     17.82880746	    -11.25144498	      6.13886980	     32.52356412	     98.31227106
     10.01666670	     -1.18940007	      0.48544240	     -0.59559492	     -0.58970633	      0.81650001	     -0.16444952	     39.52070590	     -6.77622126	     -5.42285989	     67.88871509	     32.69567404	     -3.34743478	      0.00000000	     39.20839279	     -8.26383920	     -8.95817065	     69.52946624	     31.53979813	      0.65798074	      0.00000000	    -49.41739666	      1.37941466	      2.42107845	     16.22756808	     -8.12899817	     -9.51076296	     35.00101925	     99.43549605	     16.97832426	    -11.08296328	      6.12453470	     32.28127263	     98.43271357
     10.03333330	     -1.69165167	      0.49106495	     -0.77324351	     -0.58300780	      0.82305923	     -0.16401418	     38.45904741	     -6.51609172	     -5.43650301	     65.63518118	     31.79870021	     -3.20263802	      0.00000000	     38.14461160	     -8.23930766	     -9.37840628	     67.30357461	     30.51936878	      0.93926724	      0.00000000	    -47.08671081	      1.42034623	      2.33344133	     15.20435104	     -8.08004403	     -9.34347376	     34.65249238	     99.53132028	     15.79364269	    -10.97366236	      6.14527388	     31.94543177	     98.48428740
     10.05000000	     -2.50940267	      0.49281280	     -0.93599747	     -0.57772581	      0.82621812	     -0.16274334	     37.81342279	     -6.18263758	     -5.39382584	     63.54375725	     30.95688527	     -3.74471071	      0.00000000	     37.62341299	     -8.27015651	     -9.72550880	     65.39380071	     29.82457081	      0.85719229	      0.00000000	    -44.04560210	      1.39126995	      2.15746819	     14.14506389	     -7.91481780	     -8.73248026	     33.62110371	     99.80094947	     14.43913280	    -10.88426292	      6.02306379	     31.20927084	     98.58536850
